REM DIRINDEX 1\2,1\3
REM DIRNAME cjc116,folder01,folder02
TITLE ""
FILE "Disc2Track03.mp3" MP3
  TRACK 01 AUDIO
    TITLE "0:"
    INDEX 01 00:00:00
  TRACK 02 AUDIO
    TITLE "3:cjc116_1819"
    INDEX 01 00:00:09
  TRACK 03 AUDIO
    TITLE "0:"
    INDEX 01 00:01:66
  TRACK 04 AUDIO
    TITLE "2:cjc116_1820"
    INDEX 01 00:02:42
  TRACK 05 AUDIO
    TITLE "0:"
    INDEX 01 00:03:49
  TRACK 06 AUDIO
    TITLE "2:cjc116_1821"
    INDEX 01 00:04:03
  TRACK 07 AUDIO
    TITLE "0:"
    INDEX 01 00:08:44
  TRACK 08 AUDIO
    TITLE "2:cjc116_1822"
    INDEX 01 00:09:12
  TRACK 09 AUDIO
    TITLE "0:"
    INDEX 01 00:10:10
  TRACK 10 AUDIO
    TITLE "2:cjc116_1823"
    INDEX 01 00:10:33
  TRACK 11 AUDIO
    TITLE "0:"
    INDEX 01 00:16:51
  TRACK 12 AUDIO
    TITLE "2:cjc116_1824"
    INDEX 01 00:17:18
  TRACK 13 AUDIO
    TITLE "0:"
    INDEX 01 00:18:19
  TRACK 14 AUDIO
    TITLE "2:cjc116_1825"
    INDEX 01 00:18:37
  TRACK 15 AUDIO
    TITLE "0:"
    INDEX 01 00:22:27
  TRACK 16 AUDIO
    TITLE "2:cjc116_1826"
    INDEX 01 00:22:68
  TRACK 17 AUDIO
    TITLE "0:"
    INDEX 01 00:23:71
  TRACK 18 AUDIO
    TITLE "2:cjc116_1827"
    INDEX 01 00:24:14
  TRACK 19 AUDIO
    TITLE "0:"
    INDEX 01 00:29:01
  TRACK 20 AUDIO
    TITLE "2:cjc116_1828"
    INDEX 01 00:29:50
  TRACK 21 AUDIO
    TITLE "0:"
    INDEX 01 00:30:59
  TRACK 22 AUDIO
    TITLE "2:cjc116_1829"
    INDEX 01 00:31:00
  TRACK 23 AUDIO
    TITLE "0:"
    INDEX 01 00:38:33
  TRACK 24 AUDIO
    TITLE "2:cjc116_1830"
    INDEX 01 00:38:73
  TRACK 25 AUDIO
    TITLE "0:"
    INDEX 01 00:39:64
  TRACK 26 AUDIO
    TITLE "2:cjc116_1831"
    INDEX 01 00:40:17
  TRACK 27 AUDIO
    TITLE "0:"
    INDEX 01 00:44:30
  TRACK 28 AUDIO
    TITLE "2:cjc116_1832"
    INDEX 01 00:44:69
  TRACK 29 AUDIO
    TITLE "0:"
    INDEX 01 00:45:65
  TRACK 30 AUDIO
    TITLE "2:cjc116_1833"
    INDEX 01 00:46:09
  TRACK 31 AUDIO
    TITLE "0:"
    INDEX 01 00:50:58
  TRACK 32 AUDIO
    TITLE "2:cjc116_1834"
    INDEX 01 00:51:22
  TRACK 33 AUDIO
    TITLE "0:"
    INDEX 01 00:52:28
  TRACK 34 AUDIO
    TITLE "2:cjc116_1835"
    INDEX 01 00:52:41
  TRACK 35 AUDIO
    TITLE "0:"
    INDEX 01 00:57:21
  TRACK 36 AUDIO
    TITLE "2:cjc116_1836"
    INDEX 01 00:57:54
  TRACK 37 AUDIO
    TITLE "0:"
    INDEX 01 00:58:56
  TRACK 38 AUDIO
    TITLE "2:cjc116_1837"
    INDEX 01 00:58:73
  TRACK 39 AUDIO
    TITLE "0:"
    INDEX 01 01:04:17
  TRACK 40 AUDIO
    TITLE "2:cjc116_1838"
    INDEX 01 01:04:54
  TRACK 41 AUDIO
    TITLE "0:"
    INDEX 01 01:05:66
  TRACK 42 AUDIO
    TITLE "2:cjc116_1839"
    INDEX 01 01:06:06
  TRACK 43 AUDIO
    TITLE "0:"
    INDEX 01 01:10:14
  TRACK 44 AUDIO
    TITLE "2:cjc116_1840"
    INDEX 01 01:10:53
  TRACK 45 AUDIO
    TITLE "0:"
    INDEX 01 01:11:60
  TRACK 46 AUDIO
    TITLE "2:cjc116_1841"
    INDEX 01 01:12:01
  TRACK 47 AUDIO
    TITLE "0:"
    INDEX 01 01:16:50
  TRACK 48 AUDIO
    TITLE "2:cjc116_1842"
    INDEX 01 01:17:16
  TRACK 49 AUDIO
    TITLE "0:"
    INDEX 01 01:18:11
  TRACK 50 AUDIO
    TITLE "2:cjc116_1843"
    INDEX 01 01:18:25
  TRACK 51 AUDIO
    TITLE "0:"
    INDEX 01 01:21:55
  TRACK 52 AUDIO
    TITLE "2:cjc116_1844"
    INDEX 01 01:22:17
  TRACK 53 AUDIO
    TITLE "0:"
    INDEX 01 01:23:44
  TRACK 54 AUDIO
    TITLE "2:cjc116_1845"
    INDEX 01 01:23:56
  TRACK 55 AUDIO
    TITLE "0:"
    INDEX 01 01:27:71
  TRACK 56 AUDIO
    TITLE "2:cjc116_1846"
    INDEX 01 01:28:35
  TRACK 57 AUDIO
    TITLE "0:"
    INDEX 01 01:29:50
  TRACK 58 AUDIO
    TITLE "2:cjc116_1847"
    INDEX 01 01:29:62
  TRACK 59 AUDIO
    TITLE "0:"
    INDEX 01 01:34:06
  TRACK 60 AUDIO
    TITLE "2:cjc116_1848"
    INDEX 01 01:34:54
  TRACK 61 AUDIO
    TITLE "0:"
    INDEX 01 01:35:53
  TRACK 62 AUDIO
    TITLE "2:cjc116_1849"
    INDEX 01 01:35:59
  TRACK 63 AUDIO
    TITLE "0:"
    INDEX 01 01:41:44
  TRACK 64 AUDIO
    TITLE "2:cjc116_1850"
    INDEX 01 01:42:26
  TRACK 65 AUDIO
    TITLE "0:"
    INDEX 01 01:43:58
  TRACK 66 AUDIO
    TITLE "2:cjc116_1851"
    INDEX 01 01:43:74
  TRACK 67 AUDIO
    TITLE "0:"
    INDEX 01 01:47:48
  TRACK 68 AUDIO
    TITLE "2:cjc116_1852"
    INDEX 01 01:48:12
  TRACK 69 AUDIO
    TITLE "0:"
    INDEX 01 01:49:30
  TRACK 70 AUDIO
    TITLE "2:cjc116_1853"
    INDEX 01 01:49:39
  TRACK 71 AUDIO
    TITLE "0:"
    INDEX 01 01:54:21
  TRACK 72 AUDIO
    TITLE "2:cjc116_1854"
    INDEX 01 01:54:60
  TRACK 73 AUDIO
    TITLE "0:"
    INDEX 01 01:55:67
  TRACK 74 AUDIO
    TITLE "2:cjc116_1855"
    INDEX 01 01:56:10
  TRACK 75 AUDIO
    TITLE "0:"
    INDEX 01 02:00:25
  TRACK 76 AUDIO
    TITLE "2:cjc116_1856"
    INDEX 01 02:00:74
  TRACK 77 AUDIO
    TITLE "0:"
    INDEX 01 02:01:72
  TRACK 78 AUDIO
    TITLE "2:cjc116_1857"
    INDEX 01 02:02:09
  TRACK 79 AUDIO
    TITLE "0:"
    INDEX 01 02:06:05
  TRACK 80 AUDIO
    TITLE "2:cjc116_1858"
    INDEX 01 02:06:46
  TRACK 81 AUDIO
    TITLE "0:"
    INDEX 01 02:07:61
  TRACK 82 AUDIO
    TITLE "2:cjc116_1859"
    INDEX 01 02:08:00
  TRACK 83 AUDIO
    TITLE "0:"
    INDEX 01 02:12:27
  TRACK 84 AUDIO
    TITLE "2:cjc116_1860"
    INDEX 01 02:12:58
  TRACK 85 AUDIO
    TITLE "0:"
    INDEX 01 02:13:63
  TRACK 86 AUDIO
    TITLE "2:cjc116_1861"
    INDEX 01 02:14:10
  TRACK 87 AUDIO
    TITLE "0:"
    INDEX 01 02:21:30
  TRACK 88 AUDIO
    TITLE "2:cjc116_1862"
    INDEX 01 02:21:69
  TRACK 89 AUDIO
    TITLE "0:"
    INDEX 01 02:23:05
  TRACK 90 AUDIO
    TITLE "2:cjc116_1863"
    INDEX 01 02:23:25
  TRACK 91 AUDIO
    TITLE "0:"
    INDEX 01 02:27:58
  TRACK 92 AUDIO
    TITLE "2:cjc116_1864"
    INDEX 01 02:28:18
  TRACK 93 AUDIO
    TITLE "0:"
    INDEX 01 02:29:47
  TRACK 94 AUDIO
    TITLE "2:cjc116_1865"
    INDEX 01 02:29:66
  TRACK 95 AUDIO
    TITLE "0:"
    INDEX 01 02:34:03
  TRACK 96 AUDIO
    TITLE "2:cjc116_1866"
    INDEX 01 02:34:34
  TRACK 97 AUDIO
    TITLE "0:"
    INDEX 01 02:35:41
  TRACK 98 AUDIO
    TITLE "2:cjc116_1867"
    INDEX 01 02:35:67
  TRACK 99 AUDIO
    TITLE "0:"
    INDEX 01 02:40:23
  TRACK 100 AUDIO
    TITLE "2:cjc116_1868"
    INDEX 01 02:40:60
  TRACK 101 AUDIO
    TITLE "0:"
    INDEX 01 02:41:68
  TRACK 102 AUDIO
    TITLE "2:cjc116_1869"
    INDEX 01 02:42:08
  TRACK 103 AUDIO
    TITLE "0:"
    INDEX 01 02:47:37
  TRACK 104 AUDIO
    TITLE "2:cjc116_1870"
    INDEX 01 02:47:74
  TRACK 105 AUDIO
    TITLE "0:"
    INDEX 01 02:49:00
  TRACK 106 AUDIO
    TITLE "2:cjc116_1871"
    INDEX 01 02:49:12
  TRACK 107 AUDIO
    TITLE "0:"
    INDEX 01 02:53:53
  TRACK 108 AUDIO
    TITLE "2:cjc116_1872"
    INDEX 01 02:54:25
  TRACK 109 AUDIO
    TITLE "0:"
    INDEX 01 02:55:36
  TRACK 110 AUDIO
    TITLE "2:cjc116_1873"
    INDEX 01 02:55:50
  TRACK 111 AUDIO
    TITLE "0:"
    INDEX 01 03:00:24
  TRACK 112 AUDIO
    TITLE "2:cjc116_1874"
    INDEX 01 03:01:06
  TRACK 113 AUDIO
    TITLE "0:"
    INDEX 01 03:02:07
  TRACK 114 AUDIO
    TITLE "2:cjc116_1875"
    INDEX 01 03:02:23
  TRACK 115 AUDIO
    TITLE "0:"
    INDEX 01 03:07:22
  TRACK 116 AUDIO
    TITLE "2:cjc116_1876"
    INDEX 01 03:07:73
  TRACK 117 AUDIO
    TITLE "0:"
    INDEX 01 03:08:72
  TRACK 118 AUDIO
    TITLE "2:cjc116_1877"
    INDEX 01 03:09:19
  TRACK 119 AUDIO
    TITLE "0:"
    INDEX 01 03:14:24
  TRACK 120 AUDIO
    TITLE "2:cjc116_1878"
    INDEX 01 03:14:65
  TRACK 121 AUDIO
    TITLE "0:"
    INDEX 01 03:15:57
  TRACK 122 AUDIO
    TITLE "2:cjc116_1879"
    INDEX 01 03:15:68
  TRACK 123 AUDIO
    TITLE "0:"
    INDEX 01 03:19:02
  TRACK 124 AUDIO
    TITLE "2:cjc116_1880"
    INDEX 01 03:19:49
  TRACK 125 AUDIO
    TITLE "0:"
    INDEX 01 03:20:44
  TRACK 126 AUDIO
    TITLE "2:cjc116_1881"
    INDEX 01 03:20:58
  TRACK 127 AUDIO
    TITLE "0:"
    INDEX 01 03:24:58
  TRACK 128 AUDIO
    TITLE "2:cjc116_1882"
    INDEX 01 03:25:24
  TRACK 129 AUDIO
    TITLE "0:"
    INDEX 01 03:26:15
  TRACK 130 AUDIO
    TITLE "2:cjc116_1883"
    INDEX 01 03:26:31
  TRACK 131 AUDIO
    TITLE "0:"
    INDEX 01 03:30:01
